<svg xmlns="http://www.w3.org/2000/svg" version="1.1" width="3300" height="2000"><g id="Notes"><style>
    text {
      font-family: monospace;
      text-anchor: middle;
    }
    text.emphasis {
      font-weight:bold;
    }
    text.lanchor {
      text-anchor: start;
    }
  </style><rect height="2200" id="artboard" fill="white" width="3300" x="0" y="0"/><line id="" style="fill:none;stroke:black;stroke-width:0.5;" x1="263" x2="3036" y1="292" y2="292"/><text class="lanchor emphasis" transform="matrix(1 0 0 1 263 322)">Weight/Scale Variations</text><text transform="matrix(1 0 0 1 559.711 322)">Ultralight</text><text transform="matrix(1 0 0 1 856.422 322)">Thin</text><text transform="matrix(1 0 0 1 1153.13 322)">Light</text><text transform="matrix(1 0 0 1 1449.84 322)">Regular</text><text transform="matrix(1 0 0 1 1746.56 322)">Medium</text><text transform="matrix(1 0 0 1 2043.27 322)">Semibold</text><text transform="matrix(1 0 0 1 2339.98 322)">Bold</text><text transform="matrix(1 0 0 1 2636.69 322)">Heavy</text><text transform="matrix(1 0 0 1 2933.4 322)">Black</text><text id="template-version" style="text-anchor: end;" transform="matrix(1 0 0 1 3036 1933)">Template v.1.0</text><text class="lanchor" transform="matrix(1 0 0 1 263 726)">Small</text><text class="lanchor" transform="matrix(1 0 0 1 263 1156)">Medium</text><text class="lanchor" transform="matrix(1 0 0 1 263 1586)">Large</text></g><g id="Guides"><g id="H-reference" style="fill:#27AAE1;stroke:none;" transform="matrix(1 0 0 1 339 696)"><path d="M 54.9316 0 L 57.666 0 L 30.5664 -70.459 L 28.0762 -70.459 L 0.976562 0 L 3.66211 0 L 12.9395 -24.4629 L 45.7031 -24.4629 Z M 29.1992 -67.0898 L 29.4434 -67.0898 L 44.8242 -26.709 L 13.8184 -26.709 Z"/></g><line id="Baseline-S" style="fill:none;stroke:#27AAE1;opacity:1;stroke-width:0.577;" x1="263" x2="3036" y1="696" y2="696"/><line id="Capline-S" style="fill:none;stroke:#27AAE1;opacity:1;stroke-width:0.577;" x1="263" x2="3036" y1="625.541" y2="625.541"/><g id="H-reference" style="fill:#27AAE1;stroke:none;" transform="matrix(1 0 0 1 339 1126)"><path d="M 54.9316 0 L 57.666 0 L 30.5664 -70.459 L 28.0762 -70.459 L 0.976562 0 L 3.66211 0 L 12.9395 -24.4629 L 45.7031 -24.4629 Z M 29.1992 -67.0898 L 29.4434 -67.0898 L 44.8242 -26.709 L 13.8184 -26.709 Z"/></g><line id="Baseline-M" style="fill:none;stroke:#27AAE1;opacity:1;stroke-width:0.577;" x1="263" x2="3036" y1="1126" y2="1126"/><line id="Capline-M" style="fill:none;stroke:#27AAE1;opacity:1;stroke-width:0.577;" x1="263" x2="3036" y1="1055.54" y2="1055.54"/><g id="H-reference" style="fill:#27AAE1;stroke:none;" transform="matrix(1 0 0 1 339 1556)"><path d="M 54.9316 0 L 57.666 0 L 30.5664 -70.459 L 28.0762 -70.459 L 0.976562 0 L 3.66211 0 L 12.9395 -24.4629 L 45.7031 -24.4629 Z M 29.1992 -67.0898 L 29.4434 -67.0898 L 44.8242 -26.709 L 13.8184 -26.709 Z"/></g><line id="Baseline-L" style="fill:none;stroke:#27AAE1;opacity:1;stroke-width:0.577;" x1="263" x2="3036" y1="1556" y2="1556"/><line id="Capline-L" style="fill:none;stroke:#27AAE1;opacity:1;stroke-width:0.577;" x1="263" x2="3036" y1="1485.54" y2="1485.54"/><rect height="119.336" id="left-margin" style="fill:darkred;stroke:none;opacity:0.4;" width="12.4512" x="1394.06" y="1030.79"/><rect height="119.336" id="right-margin" style="fill:darkgreen;stroke:none;opacity:0.4;" width="12.4512" x="1502.5112" y="1030.79"/><rect x="1406.5112" y="1045" width="96" height="96" fill="none" stroke="blue" stroke-dasharray="5"/><rect x="1394.06" y="1030.79" width="120.9024" height="119.336" fill="none" stroke="blue"/></g><g id="Symbols"><g id="Bold-L" transform="matrix(1 0 0 1 2266 1556)"><path d="M77.36001 -35.874999999999986 Q82.39875 -35.874999999999986 86.026875 -39.463134999999994 Q89.655 -43.05126999999999 89.655 -48.09000999999998 Q89.655 -53.12874999999998 86.066865 -56.756874999999994 Q82.47873 -60.38499999999999 77.43999 -60.38499999999999 Q72.40125 -60.38499999999999 68.77312500000001 -56.796865 Q65.145 -53.20872999999999 65.145 -48.16999 Q65.145 -43.13124999999998 68.733135 -39.50312499999998 Q72.32127 -35.874999999999986 77.36001 -35.874999999999986 Z M77.4 12.822500000000016 Q97.4527275 -5.61417999999999 107.01823875 -20.619459999999982 Q116.58375000000001 -35.62473999999999 116.58375000000001 -46.89208374999998 Q116.58375000000001 -64.65812499999998 105.24739125 -75.98593749999999 Q93.91087125000001 -87.31375 77.4364425 -87.31375 Q60.9618525 -87.31375 49.589051250000004 -75.97593999999998 Q38.21625 -64.63829124999998 38.21625 -46.85660874999998 Q38.21625 -35.55249999999998 48.0276675 -20.627844999999986 Q57.839085000000004 -5.703189999999985 77.4 12.822500000000016 Z M77.4 32.81750000000002 Q50.14875 9.597500000000018 36.60375 -10.238668749999981 Q23.05875 -30.074837499999987 23.05875 -46.861123749999976 Q23.05875 -72.29250624999999 39.44158875 -87.38195875 Q55.8244275 -102.47125 77.385165 -102.47125 Q98.94606375000001 -102.47125 115.34357625 -87.38195875 Q131.74125 -72.29250624999999 131.74125 -46.861123749999976 Q131.74125 -30.074837499999987 118.19625 -10.238668749999981 Q104.65125 9.597500000000018 77.4 32.81750000000002 Z"/></g><g id="Semibold-L" transform="matrix(1 0 0 1 1970.27 1556)"><path d="M77.38355250000001 -36.29570124999998 Q82.25846250000001 -36.29570124999998 85.74646125 -39.76709124999999 Q89.23429875 -43.2386425 89.23429875 -48.1135525 Q89.23429875 -52.98846249999998 85.76290875000001 -56.476461249999986 Q82.2913575 -59.96429874999998 77.4164475 -59.96429874999998 Q72.5415375 -59.96429874999998 69.05353875 -56.49290875 Q65.56570125 -53.02135749999998 65.56570125 -48.14644749999998 Q65.56570125 -43.271537499999994 69.03709125 -39.78353874999998 Q72.50864250000001 -36.29570124999998 77.38355250000001 -36.29570124999998 Z M77.4 14.434838750000015 Q98.05854375 -4.468982499999981 107.91704625000001 -19.85594124999998 Q117.77554875 -35.24273874999999 117.77554875 -46.86934749999999 Q117.77554875 -65.16912624999999 106.08943875 -76.83733749999999 Q94.40332875 -88.50554874999997 77.42064 -88.50554874999997 Q60.437951250000005 -88.50554874999997 48.731201250000005 -76.83169374999999 Q37.024451250000006 -65.15799999999999 37.024451250000006 -46.84935249999998 Q37.024451250000006 -35.20194249999999 47.127086250000005 -19.860617499999982 Q57.229721250000004 -4.519292499999985 77.4 14.434838750000015 Z M77.4 31.275143750000016 Q50.7095775 8.54598875000002 37.4799825 -10.903663749999986 Q24.25054875 -30.353154999999987 24.25054875 -46.851932499999975 Q24.25054875 -71.74264374999998 40.27589625 -86.51104749999999 Q56.30124375 -101.27945125 77.391615 -101.27945125 Q98.48198625 -101.27945125 114.51571874999999 -86.51104749999999 Q130.54945125 -71.74264374999998 130.54945125 -46.851932499999975 Q130.54945125 -30.353154999999987 117.3200175 -10.903663749999986 Q104.09042250000002 8.54598875000002 77.4 31.275143750000016 Z"/></g><g id="Medium-L" transform="matrix(1 0 0 1 1674.31 1556)"><path d="M77.40129 -36.61110624999999 Q82.1533275 -36.61110624999999 85.53619125 -39.99525999999999 Q88.91889375 -43.37925249999999 88.91889375 -48.13128999999999 Q88.91889375 -52.88332749999998 85.53474 -56.26619124999999 Q82.1507475 -59.648893749999985 77.39871000000001 -59.648893749999985 Q72.6466725 -59.648893749999985 69.26380875000001 -56.26473999999999 Q65.88110625 -52.880747499999984 65.88110625 -48.128709999999984 Q65.88110625 -43.3766725 69.26526000000001 -39.993808749999985 Q72.6492525 -36.61110624999999 77.40129 -36.61110624999999 Z M77.4 15.644375000000014 Q98.51294625 -3.610003749999983 108.5912325 -19.28318124999999 Q118.66951875 -34.95635874999999 118.66951875 -46.85241624999999 Q118.66951875 -65.55257875 106.721055 -77.47604874999999 Q94.77259124999999 -89.39951874999997 77.40870749999999 -89.39951874999997 Q60.04482375 -89.39951874999997 48.087652500000004 -77.47362999999999 Q36.13048125 -65.54774125 36.13048125 -46.844031249999986 Q36.13048125 -34.939104999999984 46.45161 -19.285116249999987 Q56.7725775 -3.6312887499999817 77.4 15.644375000000014 Z M77.4 30.118336250000013 Q51.13027875 7.757153750000015 38.13739875 -11.402409999999989 Q25.14451875 -30.56197374999998 25.14451875 -46.844998749999974 Q25.14451875 -71.33000499999999 40.9017075 -85.85782375 Q56.65889625 -100.38548125 77.39645250000001 -100.38548125 Q98.13400874999999 -100.38548125 113.894745 -85.85782375 Q129.65548125 -71.33000499999999 129.65548125 -46.844998749999974 Q129.65548125 -30.56197374999998 116.66260125000001 -11.402409999999989 Q103.66972125000001 7.757153750000015 77.4 30.118336250000013 Z"/></g><g id="Regular-L" transform="matrix(1 0 0 1 1378.56 1556)"><path d="M77.41435125 -36.84249999999999 Q82.07625 -36.84249999999999 85.38187500000001 -40.16247624999998 Q88.6875 -43.48229124999999 88.6875 -48.14435125 Q88.6875 -52.80624999999999 85.36752374999999 -56.11187499999998 Q82.04770875 -59.41749999999999 77.38564875 -59.41749999999999 Q72.72375 -59.41749999999999 69.418125 -56.09752374999998 Q66.1125 -52.77770874999999 66.1125 -48.11564874999998 Q66.1125 -43.453749999999985 69.43247625000001 -40.14812499999999 Q72.75229125 -36.84249999999999 77.41435125 -36.84249999999999 Z M77.4 16.531250000000014 Q98.84625 -2.9799999999999827 109.08562500000001 -18.863124999999982 Q119.325 -34.74624999999999 119.325 -46.83999999999999 Q119.325 -65.83363749999998 107.184165 -77.94431874999998 Q95.04349125 -90.05499999999998 77.4 -90.05499999999998 Q59.75650875000001 -90.05499999999998 47.615835 -77.94431874999998 Q35.475 -65.83363749999998 35.475 -46.83999999999999 Q35.475 -34.74624999999999 45.956250000000004 -18.863124999999982 Q56.4375 -2.9799999999999827 77.4 16.531250000000014 Z M77.4 29.270000000000017 Q51.43875 7.178750000000015 38.619375 -11.768124999999984 Q25.8 -30.71499999999999 25.8 -46.83999999999999 Q25.8 -71.02749999999999 41.360625 -85.37874999999998 Q56.92125 -99.72999999999999 77.4 -99.72999999999999 Q97.87875 -99.72999999999999 113.439375 -85.37874999999998 Q129.0 -71.02749999999999 129.0 -46.83999999999999 Q129.0 -30.71499999999999 116.180625 -11.768124999999984 Q103.36125 7.178750000000015 77.4 29.270000000000017 Z"/></g><g id="Light-L" transform="matrix(1 0 0 1 1082.77 1556)"><path d="M77.41435125 -38.02091499999999 Q81.58008375 -38.02091499999999 84.54450375 -40.99968624999998 Q87.509085 -43.97845749999999 87.509085 -48.14435125 Q87.509085 -52.31008374999999 84.53031375 -55.274503749999994 Q81.5515425 -58.23908499999999 77.38564875 -58.23908499999999 Q73.21991625 -58.23908499999999 70.25549625 -55.260313749999995 Q67.290915 -52.281542499999986 67.290915 -48.11564874999998 Q67.290915 -43.94991624999999 70.26968625 -40.98549624999998 Q73.2484575 -38.02091499999999 77.41435125 -38.02091499999999 Z M77.4 18.267912500000016 Q98.59808625000001 -0.6231699999999876 109.33378875 -17.59166874999999 Q120.06933000000001 -34.56016749999999 120.06933000000001 -46.83999999999999 Q120.06933000000001 -66.14388249999999 107.7424125 -78.47160624999998 Q95.41565625000001 -90.79933 77.4 -90.79933 Q59.38434375 -90.79933 47.0575875 -78.47160624999998 Q34.730669999999996 -66.14388249999999 34.730669999999996 -46.83999999999999 Q34.730669999999996 -34.56016749999999 45.64616625 -17.59166874999999 Q56.56150125 -0.6231699999999876 77.4 18.267912500000016 Z M77.4 28.029503750000018 Q52.18308 6.12433625000002 39.79779 -12.63645624999998 Q27.412661250000003 -31.39724874999999 27.412661250000003 -46.83999999999999 Q27.412661250000003 -70.28316999999998 42.50808 -84.200335 Q57.60349875 -98.11733874999999 77.4 -98.11733874999999 Q97.19650125 -98.11733874999999 112.29192 -84.200335 Q127.38733875000001 -70.28316999999998 127.38733875000001 -46.83999999999999 Q127.38733875000001 -31.39724874999999 115.00221 -12.63645624999998 Q102.61692000000001 6.12433625000002 77.4 28.029503750000018 Z"/></g><g id="Thin-L" transform="matrix(1 0 0 1 787.282 1556)"><path d="M77.41435125 -39.199168749999984 Q81.0839175 -39.199168749999984 83.70729375 -41.83689624999998 Q86.33083125 -44.47462374999999 86.33083125 -48.14435125 Q86.33083125 -51.81391749999999 83.69310375 -54.437293749999995 Q81.05537625 -57.06083124999998 77.38564875 -57.06083124999998 Q73.7160825 -57.06083124999998 71.09270625 -54.423103749999996 Q68.46916875000001 -51.785376249999985 68.46916875000001 -48.11564874999998 Q68.46916875000001 -44.44608249999999 71.10689625 -41.82270624999998 Q73.74462375 -39.199168749999984 77.41435125 -39.199168749999984 Z M77.4 20.004252500000018 Q98.35008375 1.7334987500000167 109.58179125000001 -16.320373749999987 Q120.81349875000001 -34.374084999999994 120.81349875000001 -46.83999999999999 Q120.81349875000001 -66.45380499999999 108.30049875 -78.99873249999999 Q95.78766 -91.54349875 77.4 -91.54349875 Q59.01234 -91.54349875 46.49950125000001 -78.99873249999999 Q33.98650125 -66.45380499999999 33.98650125 -46.83999999999999 Q33.98650125 -34.374084999999994 45.3360825 -16.320373749999987 Q56.685502500000005 1.7334987500000167 77.4 20.004252500000018 Z M77.4 26.789168750000016 Q52.927248750000004 5.070083750000016 40.97604375 -13.504626249999987 Q29.025000000000002 -32.07933624999998 29.025000000000002 -46.83999999999999 Q29.025000000000002 -69.53900124999998 43.65537375 -83.02208124999999 Q58.28558625 -96.505 77.4 -96.505 Q96.51441375 -96.505 111.14462625 -83.02208124999999 Q125.775 -69.53900124999998 125.775 -46.83999999999999 Q125.775 -32.07933624999998 113.82395625 -13.504626249999987 Q101.87275125000001 5.070083750000016 77.4 26.789168750000016 Z"/></g><g id="Ultralight-L" transform="matrix(1 0 0 1 491.205 1556)"><path d="M77.41435125 -39.906249999999986 Q80.78625 -39.906249999999986 83.205 -42.33935124999999 Q85.62375 -44.772291249999995 85.62375 -48.14435125 Q85.62375 -51.516249999999985 83.19064875 -53.93499999999999 Q80.75770874999999 -56.35374999999999 77.38564875 -56.35374999999999 Q74.01375 -56.35374999999999 71.595 -53.920648749999984 Q69.17625 -51.48770874999998 69.17625 -48.11564874999998 Q69.17625 -44.74374999999999 71.60935125 -42.32499999999999 Q74.04229125 -39.906249999999986 77.41435125 -39.906249999999986 Z M77.4 21.046250000000015 Q98.20125 3.147500000000015 109.730625 -15.557499999999983 Q121.26 -34.26249999999999 121.26 -46.83999999999999 Q121.26 -66.63988749999999 108.635415 -79.31494374999998 Q96.01099125 -91.98999999999998 77.4 -91.98999999999998 Q58.78900875000001 -91.98999999999998 46.164584999999995 -79.31494374999998 Q33.54 -66.63988749999999 33.54 -46.83999999999999 Q33.54 -34.26249999999999 45.15 -15.557499999999983 Q56.760000000000005 3.147500000000015 77.4 21.046250000000015 Z M77.4 26.045000000000016 Q53.37375 4.437500000000014 41.683125000000004 -14.025624999999984 Q29.9925 -32.48874999999998 29.9925 -46.83999999999999 Q29.9925 -69.09249999999999 44.34375 -82.31499999999998 Q58.695 -95.5375 77.4 -95.5375 Q96.105 -95.5375 110.45625 -82.31499999999998 Q124.8075 -69.09249999999999 124.8075 -46.83999999999999 Q124.8075 -32.48874999999998 113.11687500000001 -14.025624999999984 Q101.42625 4.437500000000014 77.4 26.045000000000016 Z"/></g><g id="Bold-M" transform="matrix(1 0 0 1 2281.8 1126)"><path d="M59.9735 -34.22999999999999 Q64.5 -34.22999999999999 67.75 -37.45349999999999 Q71.0 -40.676874999999995 71.0 -45.20349999999999 Q71.0 -49.72999999999999 67.7765 -52.97999999999999 Q64.553125 -56.22999999999999 60.0265 -56.22999999999999 Q55.5 -56.22999999999999 52.25 -53.00649999999999 Q49.0 -49.783124999999984 49.0 -45.25649999999999 Q49.0 -40.72999999999999 52.2235 -37.47999999999999 Q55.446875 -34.22999999999999 59.9735 -34.22999999999999 Z M60.0 -2.3549999999999898 Q73.7885 -15.215999999999987 80.45675 -25.722999999999992 Q87.125 -36.22999999999999 87.125 -44.27037499999999 Q87.125 -56.61399999999999 79.27825 -64.48449999999998 Q71.4315 -72.35499999999999 60.02825 -72.35499999999999 Q48.625 -72.35499999999999 40.75 -64.48449999999998 Q32.875 -56.61399999999999 32.875 -44.27037499999999 Q32.875 -36.22999999999999 39.54325 -25.722999999999992 Q46.2115 -15.215999999999987 60.0 -2.3549999999999898 Z M60.0 18.52000000000001 Q38.5 0.14500000000001023 27.8125 -15.419374999999988 Q17.125 -30.983749999999986 17.125 -44.22999999999999 Q17.125 -64.29475 30.051 -76.19987499999999 Q42.977125 -88.10499999999999 59.9885 -88.10499999999999 Q77.0 -88.10499999999999 89.9375 -76.19987499999999 Q102.875 -64.29475 102.875 -44.22999999999999 Q102.875 -30.983749999999986 92.1875 -15.419374999999988 Q81.5 0.14500000000001023 60.0 18.52000000000001 Z"/></g><g id="Semibold-M" transform="matrix(1 0 0 1 1985.97 1126)"><path d="M59.985 -34.66474999999999 Q64.337 -34.66474999999999 67.451125 -37.76387499999999 Q70.56525 -40.862999999999985 70.56525 -45.21499999999999 Q70.56525 -49.56699999999999 67.466125 -52.681124999999994 Q64.367 -55.795249999999996 60.015 -55.795249999999996 Q55.663 -55.795249999999996 52.548875 -52.696124999999995 Q49.43475 -49.596999999999994 49.43475 -45.24499999999999 Q49.43475 -40.89299999999999 52.533875 -37.77887499999999 Q55.633 -34.66474999999999 59.985 -34.66474999999999 Z M60.0 -0.6703749999999893 Q74.423875 -14.026499999999992 81.399375 -24.937999999999988 Q88.374875 -35.84962499999999 88.374875 -44.25274999999999 Q88.374875 -57.153499999999994 80.162625 -65.37924999999998 Q71.950375 -73.60487499999999 60.016 -73.60487499999999 Q48.0815 -73.60487499999999 39.853375 -65.37924999999998 Q31.625125 -57.153499999999994 31.625125 -44.25274999999999 Q31.625125 -35.84962499999999 38.600625 -24.937999999999988 Q45.576125 -14.026499999999992 60.0 -0.6703749999999893 Z M60.0 16.88962500000001 Q39.09775 -0.9418749999999889 28.736375 -16.124999999999993 Q18.374875 -31.30812499999999 18.374875 -44.22999999999999 Q18.374875 -63.723124999999996 30.9255 -75.28912499999998 Q43.476125 -86.85512499999999 59.9935 -86.85512499999999 Q76.510875 -86.85512499999999 89.068 -75.28912499999998 Q101.625125 -63.723124999999996 101.625125 -44.22999999999999 Q101.625125 -31.30812499999999 91.263625 -16.124999999999993 Q80.90225 -0.9418749999999889 60.0 16.88962500000001 Z"/></g><g id="Medium-M" transform="matrix(1 0 0 1 1689.91 1126)"><path d="M59.993625 -34.99087499999999 Q64.214625 -34.99087499999999 67.226875 -37.99674999999999 Q70.239125 -41.002624999999995 70.239125 -45.223624999999984 Q70.239125 -49.44462499999999 67.23325 -52.456875 Q64.227375 -55.46912499999999 60.006375 -55.46912499999999 Q55.785375 -55.46912499999999 52.773125 -52.46324999999999 Q49.760875 -49.457374999999985 49.760875 -45.236374999999995 Q49.760875 -41.01537499999999 52.76675 -38.00312499999999 Q55.772625 -34.99087499999999 59.993625 -34.99087499999999 Z M60.0 0.5933750000000089 Q74.9005 -13.134249999999987 82.1065 -24.34924999999999 Q89.3125 -35.56424999999999 89.3125 -44.23962499999999 Q89.3125 -57.55824999999999 80.826 -66.05037499999999 Q72.339625 -74.54249999999999 60.00675 -74.54249999999999 Q47.673875 -74.54249999999999 39.18075 -66.05037499999999 Q30.6875 -57.55824999999999 30.6875 -44.23962499999999 Q30.6875 -35.56424999999999 37.8935 -24.34924999999999 Q45.0995 -13.134249999999987 60.0 0.5933750000000089 Z M60.0 15.666750000000011 Q39.54625 -1.7571249999999914 29.429375 -16.654374999999987 Q19.3125 -31.55149999999999 19.3125 -44.22999999999999 Q19.3125 -63.29437499999999 31.5815 -74.606 Q43.8505 -85.91749999999999 59.99725 -85.91749999999999 Q76.144 -85.91749999999999 88.41575 -74.606 Q100.6875 -63.29437499999999 100.6875 -44.22999999999999 Q100.6875 -31.55149999999999 90.570625 -16.654374999999987 Q80.45375 -1.7571249999999914 60.0 15.666750000000011 Z"/></g><g id="Regular-M" transform="matrix(1 0 0 1 1394.06 1126)"><path d="M60.0 -35.22999999999999 Q64.125 -35.22999999999999 67.0625 -38.16749999999999 Q70.0 -41.10499999999999 70.0 -45.22999999999999 Q70.0 -49.35499999999999 67.0625 -52.29249999999999 Q64.125 -55.22999999999999 60.0 -55.22999999999999 Q55.875 -55.22999999999999 52.9375 -52.29249999999999 Q50.0 -49.35499999999999 50.0 -45.22999999999999 Q50.0 -41.10499999999999 52.9375 -38.16749999999999 Q55.875 -35.22999999999999 60.0 -35.22999999999999 Z M60.0 1.5200000000000102 Q75.25 -12.47999999999999 82.625 -23.91749999999999 Q90.0 -35.35499999999999 90.0 -44.22999999999999 Q90.0 -57.85499999999999 81.3125 -66.54249999999999 Q72.625 -75.22999999999999 60.0 -75.22999999999999 Q47.375 -75.22999999999999 38.6875 -66.54249999999999 Q30.0 -57.85499999999999 30.0 -44.22999999999999 Q30.0 -35.35499999999999 37.375 -23.91749999999999 Q44.75 -12.47999999999999 60.0 1.5200000000000102 Z M60.0 14.77000000000001 Q39.875 -2.3549999999999898 29.9375 -17.04249999999999 Q20.0 -31.72999999999999 20.0 -44.22999999999999 Q20.0 -62.97999999999999 32.0625 -74.10499999999999 Q44.125 -85.22999999999999 60.0 -85.22999999999999 Q75.875 -85.22999999999999 87.9375 -74.10499999999999 Q100.0 -62.97999999999999 100.0 -44.22999999999999 Q100.0 -31.72999999999999 90.0625 -17.04249999999999 Q80.125 -2.3549999999999898 60.0 14.77000000000001 Z"/></g><g id="Light-M" transform="matrix(1 0 0 1 1098.18 1126)"><path d="M60.0 -36.48012499999999 Q63.64425 -36.48012499999999 66.197 -39.03299999999999 Q68.749875 -41.58574999999999 68.749875 -45.22999999999999 Q68.749875 -48.87424999999999 66.197 -51.42699999999999 Q63.64425 -53.97987499999999 60.0 -53.97987499999999 Q56.35575 -53.97987499999999 53.803 -51.42699999999999 Q51.250125 -48.87424999999999 51.250125 -45.22999999999999 Q51.250125 -41.58574999999999 53.803 -39.03299999999999 Q56.35575 -36.48012499999999 60.0 -36.48012499999999 Z M60.0 3.7797500000000106 Q75.442375 -10.027874999999987 83.34625 -22.571249999999992 Q91.250125 -35.11462499999999 91.250125 -44.22999999999999 Q91.250125 -58.43199999999999 82.202 -67.45599999999999 Q73.153875 -76.48012499999999 60.0 -76.48012499999999 Q46.846125 -76.48012499999999 37.798 -67.45599999999999 Q28.749875 -58.43199999999999 28.749875 -44.22999999999999 Q28.749875 -35.11462499999999 36.65375 -22.571249999999992 Q44.557625 -10.027874999999987 60.0 3.7797500000000106 Z M60.0 13.80837500000001 Q40.452 -3.172374999999988 30.851 -17.71562499999999 Q21.250125 -32.25887499999999 21.250125 -44.22999999999999 Q21.250125 -62.40299999999999 32.952 -73.19149999999999 Q44.653875 -83.97987499999999 60.0 -83.97987499999999 Q75.346125 -83.97987499999999 87.048 -73.19149999999999 Q98.749875 -62.40299999999999 98.749875 -44.22999999999999 Q98.749875 -32.25887499999999 89.149 -17.71562499999999 Q79.548 -3.172374999999988 60.0 13.80837500000001 Z"/></g><g id="Thin-M" transform="matrix(1 0 0 1 802.565 1126)"><path d="M60.0 -37.72999999999999 Q63.1635 -37.72999999999999 65.33175 -39.89824999999999 Q67.5 -42.06649999999999 67.5 -45.22999999999999 Q67.5 -48.39349999999999 65.33175 -50.56174999999999 Q63.1635 -52.72999999999999 60.0 -52.72999999999999 Q56.8365 -52.72999999999999 54.66825 -50.56174999999999 Q52.5 -48.39349999999999 52.5 -45.22999999999999 Q52.5 -42.06649999999999 54.66825 -39.89824999999999 Q56.8365 -37.72999999999999 60.0 -37.72999999999999 Z M60.0 6.03925000000001 Q75.634625 -7.5761249999999905 84.06725 -21.22524999999999 Q92.5 -34.87424999999999 92.5 -44.22999999999999 Q92.5 -59.00887499999999 83.091375 -68.36937499999999 Q73.682625 -77.72999999999999 60.0 -77.72999999999999 Q46.317375 -77.72999999999999 36.908625 -68.36937499999999 Q27.5 -59.00887499999999 27.5 -44.22999999999999 Q27.5 -34.87424999999999 35.93275 -21.22524999999999 Q44.365375 -7.5761249999999905 60.0 6.03925000000001 Z M60.0 12.84687500000001 Q41.028875 -3.9896249999999895 31.764375 -18.38862499999999 Q22.5 -32.78762499999999 22.5 -44.22999999999999 Q22.5 -61.82612499999999 33.841375 -72.27812499999999 Q45.182625 -82.72999999999999 60.0 -82.72999999999999 Q74.817375 -82.72999999999999 86.158625 -72.27812499999999 Q97.5 -61.82612499999999 97.5 -44.22999999999999 Q97.5 -32.78762499999999 88.235625 -18.38862499999999 Q78.971125 -3.9896249999999895 60.0 12.84687500000001 Z"/></g><g id="Ultralight-M" transform="matrix(1 0 0 1 506.415 1126)"><path d="M60.0 -38.47999999999999 Q62.875 -38.47999999999999 64.8125 -40.41749999999999 Q66.75 -42.35499999999999 66.75 -45.22999999999999 Q66.75 -48.10499999999999 64.8125 -50.04249999999999 Q62.875 -51.97999999999999 60.0 -51.97999999999999 Q57.125 -51.97999999999999 55.1875 -50.04249999999999 Q53.25 -48.10499999999999 53.25 -45.22999999999999 Q53.25 -42.35499999999999 55.1875 -40.41749999999999 Q57.125 -38.47999999999999 60.0 -38.47999999999999 Z M60.0 7.39500000000001 Q75.75 -6.10499999999999 84.5 -20.41749999999999 Q93.25 -34.72999999999999 93.25 -44.22999999999999 Q93.25 -59.35499999999999 83.625 -68.91749999999999 Q74.0 -78.47999999999999 60.0 -78.47999999999999 Q46.0 -78.47999999999999 36.375 -68.91749999999999 Q26.75 -59.35499999999999 26.75 -44.22999999999999 Q26.75 -34.72999999999999 35.5 -20.41749999999999 Q44.25 -6.10499999999999 60.0 7.39500000000001 Z M60.0 12.27000000000001 Q41.375 -4.47999999999999 32.3125 -18.79249999999999 Q23.25 -33.10499999999999 23.25 -44.22999999999999 Q23.25 -61.47999999999999 34.375 -71.72999999999999 Q45.5 -81.97999999999999 60.0 -81.97999999999999 Q74.5 -81.97999999999999 85.625 -71.72999999999999 Q96.75 -61.47999999999999 96.75 -44.22999999999999 Q96.75 -33.10499999999999 87.6875 -18.79249999999999 Q78.625 -4.47999999999999 60.0 12.27000000000001 Z"/></g><g id="Bold-S" transform="matrix(1 0 0 1 2294.23 696)"><path d="M47.331222375 -34.24374999999999 Q50.989125 -34.24374999999999 53.6026875 -36.84853487499999 Q56.21625 -39.453418374999984 56.21625 -43.11122237499998 Q56.21625 -46.76912499999999 53.61146512500001 -49.38268749999999 Q51.006581625 -51.99624999999999 47.348777625000004 -51.99624999999999 Q43.690875000000005 -51.99624999999999 41.077312500000005 -49.391465124999996 Q38.463750000000005 -46.78658162499999 38.463750000000005 -43.12877762499999 Q38.463750000000005 -39.470874999999985 41.068534875000005 -36.85731249999999 Q43.673418375 -34.24374999999999 47.331222375 -34.24374999999999 Z M47.34 -9.883374999999987 Q58.1205015 -19.932078999999987 63.233813250000004 -28.044478374999983 Q68.347125 -36.15687774999999 68.347125 -42.36285587499999 Q68.347125 -52.10197599999999 62.303976750000004 -58.11455049999998 Q56.2608285 -64.12712499999999 47.36228925 -64.12712499999999 Q38.463750000000005 -64.12712499999999 32.3983125 -58.11455049999998 Q26.332875 -52.10197599999999 26.332875 -42.36285587499999 Q26.332875 -36.15687774999999 31.446186750000003 -28.044478374999983 Q36.559498500000004 -19.932078999999987 47.34 -9.883374999999987 Z M47.34 7.178750000000013 Q30.3765 -7.516374999999986 21.9440625 -19.648729374999988 Q13.511625 -31.781083749999986 13.511625 -42.31127499999999 Q13.511625 -58.260712749999996 23.6609265 -67.60454387499999 Q33.810326625 -76.94837499999998 47.330926500000004 -76.94837499999998 Q60.851625000000006 -76.94837499999998 71.01 -67.60454387499999 Q81.168375 -58.260712749999996 81.168375 -42.31127499999999 Q81.168375 -31.781083749999986 72.7359375 -19.648729374999988 Q64.3035 -7.516374999999986 47.34 7.178750000000013 Z"/></g><g id="Semibold-S" transform="matrix(1 0 0 1 1998.1 696)"><path d="M47.3403945 -34.586767749999986 Q50.860518000000006 -34.586767749999986 53.36687512500001 -37.093519374999985 Q55.87323225000001 -39.60027099999999 55.87323225000001 -43.12039449999999 Q55.87323225000001 -46.64051799999999 53.366480625 -49.146875124999994 Q50.859729 -51.653232249999995 47.3396055 -51.653232249999995 Q43.819482 -51.653232249999995 41.31312487500001 -49.14648062499999 Q38.806767750000006 -46.63972899999999 38.806767750000006 -43.119605499999984 Q38.806767750000006 -39.59948199999999 41.313519375 -37.093124874999994 Q43.820271000000005 -34.586767749999986 47.3403945 -34.586767749999986 Z M47.34 -8.554205874999987 Q58.621812375 -18.99356349999999 63.97754437500001 -27.425113374999988 Q69.33327637500001 -35.85666324999999 69.33327637500001 -42.34894974999999 Q69.33327637500001 -52.52764149999999 63.001748625000005 -58.82050824999999 Q56.670220875 -65.113276375 47.352624 -65.113276375 Q38.0349285 -65.113276375 31.690875375 -58.82050824999999 Q25.346723625 -52.52764149999999 25.346723625 -42.34894974999999 Q25.346723625 -35.85666324999999 30.702455625000002 -27.425113374999988 Q36.058187625 -18.99356349999999 47.34 -8.554205874999987 Z M47.34 5.892384125000014 Q30.84812475 -8.373919374999986 22.672999875 -20.20546749999999 Q14.497776375 -32.03701562499999 14.497776375 -42.31127499999999 Q14.497776375 -57.80970062499999 24.350907 -66.88596212499999 Q34.204037625000005 -75.962223625 47.3348715 -75.962223625 Q60.465705375 -75.962223625 70.3239645 -66.88596212499999 Q80.182223625 -57.80970062499999 80.182223625 -42.31127499999999 Q80.182223625 -32.03701562499999 72.007000125 -20.20546749999999 Q63.831875249999996 -8.373919374999986 47.34 5.892384125000014 Z"/></g><g id="Medium-S" transform="matrix(1 0 0 1 1701.85 696)"><path d="M47.347199625 -34.84408037499999 Q50.763964125 -34.84408037499999 53.18994187500001 -37.27725774999999 Q55.615919625000004 -39.71043512499999 55.615919625000004 -43.12719962499999 Q55.615919625000004 -46.54396412499999 53.18274225 -48.969941874999996 Q50.749564875000004 -51.39591962499999 47.332800375000005 -51.39591962499999 Q43.916035875000006 -51.39591962499999 41.490058125000004 -48.962742249999984 Q39.064080375 -46.52956487499999 39.064080375 -43.11280037499999 Q39.064080375 -39.69603587499999 41.49725775 -37.27005812499999 Q43.930435125 -34.84408037499999 47.347199625 -34.84408037499999 Z M47.34 -7.5571071249999875 Q58.9978695 -18.289578249999987 64.535466 -26.96058962499999 Q70.0730625 -35.63160099999999 70.0730625 -42.338594124999986 Q70.0730625 -52.84698924999999 63.5251515 -59.350025874999986 Q56.977339125 -65.8530625 47.34532575 -65.8530625 Q37.713312375 -65.8530625 31.160174250000004 -59.350025874999986 Q24.6069375 -52.84698924999999 24.6069375 -42.338594124999986 Q24.6069375 -35.63160099999999 30.144534000000004 -26.96058962499999 Q35.6821305 -18.289578249999987 47.34 -7.5571071249999875 Z M47.34 4.927535750000014 Q31.201991250000003 -9.01715162499999 23.219776875 -20.62314437499999 Q15.237562500000001 -32.22903849999999 15.237562500000001 -42.31127499999999 Q15.237562500000001 -57.47141687499999 24.868491 -66.3469765 Q34.4994195 -75.22243749999998 47.33783025 -75.22243749999998 Q60.176241000000005 -75.22243749999998 69.80933925000001 -66.3469765 Q79.4424375 -57.47141687499999 79.4424375 -42.31127499999999 Q79.4424375 -32.22903849999999 71.46022312500001 -20.62314437499999 Q63.47800875 -9.01715162499999 47.34 4.927535750000014 Z"/></g><g id="Regular-S" transform="matrix(1 0 0 1 1405.73 696)"><path d="M47.35222950000001 -35.032749999999986 Q50.69325 -35.032749999999986 53.06025 -37.411979499999994 Q55.42725 -39.791208999999995 55.42725 -43.132229499999994 Q55.42725 -46.473249999999986 53.0480205 -48.84024999999999 Q50.668791 -51.20724999999999 47.3277705 -51.20724999999999 Q43.98675 -51.20724999999999 41.61975 -48.82802049999999 Q39.25275 -46.448790999999986 39.25275 -43.10777049999999 Q39.25275 -39.76674999999999 41.63197950000001 -37.39974999999999 Q44.011209 -35.032749999999986 47.35222950000001 -35.032749999999986 Z M47.34 -6.825999999999986 Q59.273625 -17.773374999999987 64.9445625 -26.61993887499999 Q70.6155 -35.46650274999999 70.6155 -42.33099999999999 Q70.6155 -53.081124999999986 63.909000000000006 -59.73831249999999 Q57.2025 -66.39549999999998 47.34 -66.39549999999998 Q37.4775 -66.39549999999998 30.771 -59.73831249999999 Q24.064500000000002 -53.081124999999986 24.064500000000002 -42.33099999999999 Q24.064500000000002 -35.46650274999999 29.7354375 -26.61993887499999 Q35.406375000000004 -17.773374999999987 47.34 -6.825999999999986 Z M47.34 4.220000000000013 Q31.461375 -9.488874999999986 23.620687500000003 -20.929374999999986 Q15.780000000000001 -32.369874999999986 15.780000000000001 -42.31127499999999 Q15.780000000000001 -57.22337499999999 25.248 -65.95168749999999 Q34.716 -74.67999999999999 47.34 -74.67999999999999 Q59.964000000000006 -74.67999999999999 69.432 -65.95168749999999 Q78.9 -57.22337499999999 78.9 -42.31127499999999 Q78.9 -32.369874999999986 71.0593125 -20.929374999999986 Q63.218625 -9.488874999999986 47.34 4.220000000000013 Z"/></g><g id="Light-S" transform="matrix(1 0 0 1 1109.75 696)"><path d="M47.35222950000001 -36.019098624999984 Q50.31393825 -36.019098624999984 52.377370500000005 -38.09476037499999 Q54.440901375 -40.170520749999994 54.440901375 -43.132229499999994 Q54.440901375 -46.09393824999999 52.365239625 -48.15737049999999 Q50.28947925 -50.22090137499999 47.3277705 -50.22090137499999 Q44.36606175 -50.22090137499999 42.3026295 -48.14523962499999 Q40.239098625 -46.069479249999986 40.239098625 -43.10777049999999 Q40.239098625 -40.14606174999999 42.314760375000006 -38.08262949999999 Q44.39052075 -36.019098624999984 47.35222950000001 -36.019098624999984 Z M47.34 -5.043057249999986 Q59.425408875 -15.838648374999984 65.51362875 -25.557747624999983 Q71.601848625 -35.27674824999999 71.601848625 -42.33099999999999 Q71.601848625 -53.536377999999985 64.6108155 -60.459063999999984 Q57.619782375 -67.38184862499999 47.34 -67.38184862499999 Q37.060217625 -67.38184862499999 30.069184500000002 -60.459063999999984 Q23.078151375 -53.536377999999985 23.078151375 -42.33099999999999 Q23.078151375 -35.27674824999999 29.166371250000005 -25.557747624999983 Q35.254591125000005 -15.838648374999984 47.34 -5.043057249999986 Z M47.34 3.461277875000013 Q31.916628 -10.133783874999985 24.341439 -21.460470624999985 Q16.766348625000003 -32.787157374999985 16.766348625000003 -42.31127499999999 Q16.766348625000003 -56.76812199999999 25.9498155 -65.23093599999999 Q35.133282375 -73.69365137499999 47.34 -73.69365137499999 Q59.54671762500001 -73.69365137499999 68.73018450000001 -65.23093599999999 Q77.913651375 -56.76812199999999 77.913651375 -42.31127499999999 Q77.913651375 -32.787157374999985 70.338561 -21.460470624999985 Q62.763372000000004 -10.133783874999985 47.34 3.461277875000013 Z"/></g><g id="Thin-S" transform="matrix(1 0 0 1 814.015 696)"><path d="M47.35222950000001 -37.00524999999999 Q49.9346265 -37.00524999999999 51.69468825 -38.77754124999999 Q53.454750000000004 -40.549832499999994 53.454750000000004 -43.132229499999994 Q53.454750000000004 -45.71462649999999 51.68245875 -47.474688249999986 Q49.9101675 -49.23474999999999 47.3277705 -49.23474999999999 Q44.7453735 -49.23474999999999 42.98531175 -47.46245874999999 Q41.22525 -45.69016749999999 41.22525 -43.10777049999999 Q41.22525 -40.525373499999986 42.997541250000005 -38.76531174999999 Q44.7698325 -37.00524999999999 47.35222950000001 -37.00524999999999 Z M47.34 -3.260311749999987 Q59.577094125 -13.904217624999987 66.08249775 -24.495654999999992 Q72.58800000000001 -35.08719099999999 72.58800000000001 -42.33099999999999 Q72.58800000000001 -53.99153237499999 65.312532375 -61.179716875 Q58.036966125000006 -68.368 47.34 -68.368 Q36.643033875 -68.368 29.367467625000003 -61.179716875 Q22.092000000000002 -53.99153237499999 22.092000000000002 -42.33099999999999 Q22.092000000000002 -35.08719099999999 28.59750225 -24.495654999999992 Q35.102905875000005 -13.904217624999987 47.34 -3.260311749999987 Z M47.34 2.7026543750000123 Q32.371782375 -10.778594124999987 25.062091875000004 -21.99146762499999 Q17.7525 -33.20434112499999 17.7525 -42.31127499999999 Q17.7525 -56.312967624999985 26.651532375000002 -64.51028312499999 Q35.550466125 -72.7075 47.34 -72.7075 Q59.129533875 -72.7075 68.028467625 -64.51028312499999 Q76.92750000000001 -56.312967624999985 76.92750000000001 -42.31127499999999 Q76.92750000000001 -33.20434112499999 69.617908125 -21.99146762499999 Q62.308217625000005 -10.778594124999987 47.34 2.7026543750000123 Z"/></g><g id="Ultralight-S" transform="matrix(1 0 0 1 517.792 696)"><path d="M47.35222950000001 -37.59699999999999 Q49.707 -37.59699999999999 51.285000000000004 -39.187229499999994 Q52.863 -40.77745899999999 52.863 -43.132229499999994 Q52.863 -45.48699999999999 51.2727705 -47.06499999999999 Q49.682541 -48.64299999999999 47.3277705 -48.64299999999999 Q44.973 -48.64299999999999 43.395 -47.05277049999999 Q41.817 -45.46254099999999 41.817 -43.10777049999999 Q41.817 -40.752999999999986 43.40722950000001 -39.17499999999999 Q44.997459 -37.59699999999999 47.35222950000001 -37.59699999999999 Z M47.34 -2.1906249999999865 Q59.668125 -12.743499999999987 66.42393750000001 -23.85843887499999 Q73.17975 -34.97337774999999 73.17975 -42.33099999999999 Q73.17975 -54.264624999999995 65.7335625 -61.61218749999999 Q58.287375000000004 -68.95974999999999 47.34 -68.95974999999999 Q36.392625 -68.95974999999999 28.946437500000002 -61.61218749999999 Q21.50025 -54.264624999999995 21.50025 -42.33099999999999 Q21.50025 -34.97337774999999 28.256062500000002 -23.85843887499999 Q35.011875 -12.743499999999987 47.34 -2.1906249999999865 Z M47.34 2.247500000000013 Q32.644875 -11.165499999999987 25.4945625 -22.310124999999985 Q18.344250000000002 -33.45474999999999 18.344250000000002 -42.31127499999999 Q18.344250000000002 -56.039874999999995 27.0725625 -64.0778125 Q35.800875000000005 -72.11574999999999 47.34 -72.11574999999999 Q58.879125 -72.11574999999999 67.6074375 -64.0778125 Q76.33575 -56.039874999999995 76.33575 -42.31127499999999 Q76.33575 -33.45474999999999 69.1854375 -22.310124999999985 Q62.035125 -11.165499999999987 47.34 2.247500000000013 Z"/></g></g></svg>